<?xml version="1.0" encoding="UTF-8" standalone="no"?>
<!-- Created with Inkscape (http://www.inkscape.org/) -->

<svg
   xmlns:dc="http://purl.org/dc/elements/1.1/"
   xmlns:cc="http://creativecommons.org/ns#"
   xmlns:rdf="http://www.w3.org/1999/02/22-rdf-syntax-ns#"
   xmlns:svg="http://www.w3.org/2000/svg"
   xmlns="http://www.w3.org/2000/svg"
   xmlns:sodipodi="http://sodipodi.sourceforge.net/DTD/sodipodi-0.dtd"
   xmlns:inkscape="http://www.inkscape.org/namespaces/inkscape"
   width="12mm"
   height="12mm"
   viewBox="0 0 12 12"
   version="1.1"
   id="svg8"
   inkscape:version="0.92.3 (2405546, 2018-03-11)"
   sodipodi:docname="ico-newn.svg"
   inkscape:export-filename="D:\_DEV\SymLinker\Images\icon-new.png"
   inkscape:export-xdpi="541.86664"
   inkscape:export-ydpi="541.86664">
  <defs
     id="defs2" />
  <sodipodi:namedview
     id="base"
     pagecolor="#ffffff"
     bordercolor="#666666"
     borderopacity="1.0"
     inkscape:pageopacity="0.0"
     inkscape:pageshadow="2"
     inkscape:zoom="5.6"
     inkscape:cx="13.97403"
     inkscape:cy="9.5211123"
     inkscape:document-units="mm"
     inkscape:current-layer="layer1"
     showgrid="false"
     fit-margin-top="0"
     fit-margin-left="0"
     fit-margin-right="0"
     fit-margin-bottom="0"
     inkscape:window-width="727"
     inkscape:window-height="435"
     inkscape:window-x="1709"
     inkscape:window-y="567"
     inkscape:window-maximized="0" />
  <metadata
     id="metadata5">
    <rdf:RDF>
      <cc:Work
         rdf:about="">
        <dc:format>image/svg+xml</dc:format>
        <dc:type
           rdf:resource="http://purl.org/dc/dcmitype/StillImage" />
        <dc:title></dc:title>
      </cc:Work>
    </rdf:RDF>
  </metadata>
  <g
     inkscape:label="Layer 1"
     inkscape:groupmode="layer"
     id="layer1"
     transform="translate(-128.5119,-157.69763)">
    <g
       id="g834"
       transform="translate(0.70833008,-0.70831992)">
      <g
         transform="matrix(0.26458333,0,0,0.26458333,127.45357,158.05595)"
         id="g845">
        <path
           style="fill:#ffa000"
           inkscape:connector-curvature="0"
           d="M 40,12 H 22 L 18,8 H 8 C 5.8,8 4,9.8 4,12 v 8 h 40 v -4 c 0,-2.2 -1.8,-4 -4,-4 z"
           id="path831" />
        <path
           style="fill:#ffca28"
           inkscape:connector-curvature="0"
           d="M 40,12 H 8 c -2.2,0 -4,1.8 -4,4 v 20 c 0,2.2 1.8,4 4,4 h 32 c 2.2,0 4,-1.8 4,-4 V 16 c 0,-2.2 -1.8,-4 -4,-4 z"
           id="path833" />
      </g>
      <g
         transform="matrix(0.21723268,0,0,0.21723268,131.01566,162.28137)"
         id="g829"
         style="fill:none;stroke:currentColor;stroke-width:2;stroke-linecap:round;stroke-linejoin:round">
        <g
           transform="matrix(0.79229869,0.76378689,-0.76378689,0.79229869,12.039965,-6.0578584)"
           id="g4574">
          <path
             id="path815"
             d="m 10,13 a 5,5 0 0 0 7.54,0.54 l 3,-3 A 5,5 0 0 0 13.47,3.47 l -1.72,1.71"
             inkscape:connector-curvature="0" />
          <path
             id="path817"
             d="M 14,11 A 5,5 0 0 0 6.46,10.46 l -3,3 a 5,5 0 0 0 7.07,7.07 l 1.71,-1.71"
             inkscape:connector-curvature="0" />
        </g>
      </g>
    </g>
  </g>
</svg>
